<svg width="261" height="242" viewBox="0 0 261 242" fill="none" xmlns="http://www.w3.org/2000/svg">
<g filter="url(#filter0_d_189_356)">
<path d="M199.536 31.6791C220.053 43.2616 233.218 65.0729 239.544 87.6362C246.041 110.2 245.87 133.515 236.124 152.318C226.55 171.271 207.571 185.862 187.225 198.347C167.05 210.832 145.336 221.361 121.4 224.22C97.4632 227.078 71.304 222.114 54.0354 208.876C36.7669 195.489 28.3891 173.527 23.0889 152.318C17.7886 131.108 15.5659 110.801 17.9596 87.937C20.5242 65.0729 27.7052 39.8019 46.1705 27.6177C64.6359 15.4335 94.2147 16.4865 122.768 17.6899C151.491 18.7428 179.19 20.0966 199.536 31.6791Z" fill="#232323" fill-opacity="0.18" shape-rendering="crispEdges"/>
</g>
<g clip-path="url(#clip0_189_356)">
<path d="M87.9193 163.602C86.1512 172.924 86.4743 180.579 86.4743 180.938H103.554V169.279C98.3481 167.533 93.1337 165.518 87.9193 163.602Z" fill="white" stroke="black" stroke-width="1.00678" stroke-miterlimit="10"/>
<path d="M151.426 169.369V180.938H166.495C166.495 180.938 167.643 173.398 166.593 164.059C161.576 166.02 156.461 167.73 151.426 169.369Z" fill="white" stroke="black" stroke-width="1.00678" stroke-miterlimit="10"/>
<path d="M168.155 160.45C165.319 145.882 155.752 128.887 126.466 128.887C100.538 128.887 90.3962 145.783 86.4473 160.334L103.544 165.724V180.947H151.417V165.724L168.155 160.45Z" fill="white" stroke="black" stroke-width="1.00678" stroke-miterlimit="10"/>
<path d="M111.505 138.199C111.954 138.199 112.403 138.038 112.78 137.733C113.623 137.384 114.251 136.596 114.35 135.701C114.404 135.235 114.314 134.779 114.108 134.385C113.955 133.686 113.516 133.05 112.762 132.853C112.304 132.728 111.505 132.701 110.715 133.606C110.329 133.91 110.06 134.331 109.961 134.787C109.791 135.137 109.638 135.549 109.611 136.014C109.558 137.026 110.168 137.93 111.065 138.145C111.209 138.181 111.362 138.199 111.505 138.199Z" fill="black"/>
<path d="M98.0787 141.279C98.2403 141.279 98.3929 141.252 98.5454 141.208C98.9493 141.082 99.4699 140.742 99.7301 139.873C100.026 139.336 100.098 138.763 100.125 138.351C100.125 138.324 100.125 138.298 100.134 138.271L100.376 137.769C100.52 137.474 100.717 137.062 100.735 136.569C100.762 135.817 100.349 135.137 99.7122 134.868C98.9762 134.564 98.1595 134.832 97.5133 135.584C97.4236 135.692 97.3338 135.808 97.2441 135.925C97.1364 135.996 97.0287 136.077 96.93 136.175C96.5171 136.578 96.3286 137.071 96.194 137.438C96.0325 137.859 95.844 138.378 95.853 138.978C95.8709 139.829 96.3286 140.581 97.0197 140.903C97.3249 141.145 97.7018 141.279 98.0787 141.279Z" fill="black"/>
<path d="M134.84 156.009C134.966 156.009 135.1 155.991 135.244 155.946C135.612 155.991 135.98 155.83 136.204 155.534C136.312 155.382 136.419 155.23 136.518 155.069C136.68 154.952 136.805 154.782 136.877 154.585L136.958 154.353C137.218 154.003 137.407 153.6 137.496 153.18C137.541 152.991 137.568 152.794 137.577 152.597C137.667 152.329 137.64 152.033 137.514 151.792C137.514 151.738 137.514 151.684 137.514 151.639C137.523 151.55 137.523 151.451 137.523 151.362C137.55 150.126 136.931 149.625 136.563 149.437C135.989 149.141 135.253 149.213 134.687 149.634C134.66 149.652 134.633 149.669 134.616 149.687C134.454 149.723 134.301 149.786 134.149 149.875C133.835 150.063 133.574 150.35 133.404 150.699C132.973 151.066 132.641 151.595 132.488 152.186C132.273 153.009 132.462 153.806 132.982 154.299C133.117 154.612 133.314 154.881 133.565 155.096C133.61 155.23 133.682 155.364 133.772 155.49C133.996 155.785 134.31 155.973 134.678 156.009C134.732 156.009 134.786 156.009 134.84 156.009Z" fill="black"/>
<path d="M114.261 158.668C114.988 158.668 115.706 158.239 116.118 157.549C116.217 157.388 116.289 157.227 116.343 157.066C116.558 156.869 116.747 156.627 116.881 156.34C117.16 155.749 117.16 155.132 117.151 154.684C117.151 154.182 117.142 152.857 116.065 152.239C115.149 151.711 114.117 152.06 113.39 152.75C112.923 153.036 112.537 153.52 112.322 154.147C112.187 154.523 112.125 154.943 112.143 155.364C112.107 155.615 112.098 155.875 112.098 156.134C112.134 157.307 112.825 158.561 114.09 158.668C114.153 158.659 114.207 158.668 114.261 158.668Z" fill="black"/>
<path d="M125.82 168.044C126.269 168.044 126.718 167.882 127.095 167.578C127.938 167.229 128.567 166.441 128.665 165.545C128.719 165.08 128.629 164.623 128.423 164.229C128.27 163.531 127.831 162.895 127.077 162.698C126.619 162.573 125.82 162.546 125.03 163.45C124.645 163.754 124.375 164.175 124.277 164.632C124.106 164.981 123.953 165.393 123.927 165.859C123.873 166.871 124.483 167.775 125.38 167.999C125.524 168.026 125.668 168.044 125.82 168.044Z" fill="black"/>
<path d="M142.253 145.47C142.702 145.47 143.151 145.309 143.528 145.004C144.371 144.655 145 143.867 145.098 142.972C145.152 142.506 145.062 142.049 144.856 141.655C144.703 140.957 144.264 140.321 143.51 140.124C143.052 139.999 142.253 139.972 141.463 140.876C141.077 141.181 140.808 141.602 140.71 142.058C140.539 142.408 140.386 142.819 140.36 143.285C140.306 144.297 140.916 145.201 141.813 145.425C141.966 145.452 142.11 145.47 142.253 145.47Z" fill="black"/>
<path d="M158.749 160.325C159.198 160.325 159.647 160.164 160.023 159.859C160.867 159.51 161.495 158.722 161.594 157.827C161.648 157.361 161.558 156.904 161.352 156.51C161.199 155.812 160.759 155.176 160.006 154.979C159.548 154.854 158.749 154.827 157.959 155.731C157.573 156.036 157.304 156.457 157.205 156.913C157.035 157.263 156.882 157.675 156.855 158.14C156.802 159.152 157.412 160.056 158.309 160.28C158.462 160.307 158.605 160.325 158.749 160.325Z" fill="black"/>
<path d="M107.529 169.011C107.978 169.011 108.427 168.849 108.804 168.545C109.647 168.196 110.276 167.408 110.374 166.512C110.428 166.047 110.338 165.59 110.132 165.196C109.979 164.498 109.54 163.862 108.786 163.665C108.328 163.54 107.529 163.513 106.74 164.417C106.354 164.722 106.084 165.142 105.986 165.599C105.815 165.948 105.663 166.36 105.636 166.826C105.573 167.838 106.192 168.742 107.09 168.957C107.233 169.002 107.386 169.011 107.529 169.011Z" fill="black"/>
<path d="M112.869 181.654C113.533 181.95 114.368 181.851 115.023 181.376C115.176 181.269 115.311 181.153 115.427 181.027C115.705 180.938 115.975 180.794 116.217 180.579C116.711 180.15 116.962 179.586 117.141 179.174C117.339 178.717 117.868 177.499 117.141 176.496C116.522 175.646 115.427 175.547 114.494 175.879C113.946 175.95 113.399 176.246 112.95 176.72C112.681 177.007 112.448 177.365 112.295 177.759C112.16 177.974 112.044 178.207 111.945 178.448C111.496 179.541 111.622 180.956 112.735 181.573C112.771 181.609 112.815 181.636 112.869 181.654Z" fill="black"/>
<path d="M121.844 148.613C122.257 148.792 122.733 148.828 123.2 148.702C124.115 148.72 125.004 148.255 125.461 147.476C125.695 147.073 125.802 146.616 125.775 146.177C125.919 145.479 125.775 144.727 125.174 144.234C124.806 143.939 124.088 143.59 123.002 144.091C122.526 144.216 122.114 144.494 121.835 144.87C121.539 145.121 121.225 145.434 121.019 145.846C120.552 146.75 120.749 147.816 121.485 148.389C121.584 148.479 121.71 148.55 121.844 148.613Z" fill="black"/>
<path d="M93.2682 158.042C93.717 158.042 94.1657 157.881 94.5427 157.576C95.3863 157.227 96.0145 156.439 96.1133 155.543C96.1671 155.078 96.0774 154.621 95.8709 154.227C95.7184 153.529 95.2786 152.893 94.5247 152.696C94.067 152.571 93.2682 152.544 92.4784 153.448C92.0925 153.753 91.8233 154.173 91.7245 154.63C91.554 154.979 91.4014 155.391 91.3745 155.857C91.3207 156.869 91.931 157.773 92.8285 157.988C92.981 158.024 93.1246 158.042 93.2682 158.042Z" fill="black"/>
<path d="M102.109 150.968C102.521 151.147 102.997 151.183 103.464 151.057C104.379 151.075 105.268 150.61 105.725 149.831C105.959 149.428 106.066 148.971 106.04 148.532C106.183 147.834 106.04 147.082 105.438 146.589C105.07 146.294 104.352 145.944 103.266 146.446C102.791 146.571 102.378 146.849 102.1 147.225C101.803 147.476 101.489 147.789 101.283 148.201C100.816 149.105 101.014 150.171 101.75 150.744C101.848 150.834 101.974 150.905 102.109 150.968Z" fill="black"/>
<path d="M165.265 153.215C165.409 153.278 165.561 153.323 165.723 153.341C166.144 153.385 166.755 153.287 167.347 152.597C167.832 152.23 168.137 151.738 168.325 151.371C168.334 151.344 168.352 151.326 168.361 151.299L168.783 150.941C169.034 150.726 169.375 150.431 169.6 149.983C169.932 149.302 169.833 148.514 169.348 148.013C168.801 147.44 167.939 147.35 167.051 147.78C166.925 147.843 166.791 147.914 166.674 147.986C166.548 148.004 166.414 148.04 166.288 148.085C165.741 148.282 165.373 148.667 165.103 148.935C164.789 149.258 164.394 149.652 164.161 150.207C163.829 150.986 163.946 151.863 164.448 152.436C164.628 152.786 164.915 153.063 165.265 153.215Z" fill="black"/>
<path d="M155.402 149.168C155.85 149.168 156.299 149.007 156.676 148.702C157.52 148.353 158.148 147.565 158.247 146.67C158.3 146.204 158.211 145.747 158.004 145.354C157.852 144.655 157.412 144.019 156.658 143.822C156.2 143.697 155.402 143.67 154.612 144.574C154.226 144.879 153.957 145.3 153.858 145.756C153.687 146.106 153.535 146.518 153.508 146.983C153.445 147.995 154.064 148.899 154.962 149.123C155.114 149.159 155.258 149.168 155.402 149.168Z" fill="black"/>
<path d="M129.536 180.033C129.697 180.033 129.85 180.006 130.011 179.962C130.415 179.836 130.936 179.496 131.196 178.627C131.492 178.09 131.564 177.517 131.591 177.105C131.591 177.078 131.591 177.052 131.6 177.025L131.842 176.523C131.986 176.228 132.183 175.816 132.201 175.323C132.228 174.571 131.815 173.891 131.178 173.622C130.442 173.318 129.625 173.586 128.979 174.338C128.89 174.446 128.8 174.562 128.71 174.679C128.602 174.75 128.495 174.831 128.396 174.929C127.983 175.332 127.795 175.825 127.66 176.192C127.498 176.613 127.31 177.132 127.319 177.732C127.337 178.583 127.795 179.335 128.486 179.657C128.782 179.899 129.159 180.033 129.536 180.033Z" fill="black"/>
<path d="M145.251 161.31C145.915 161.605 146.75 161.507 147.405 161.032C147.557 160.925 147.692 160.809 147.809 160.683C148.087 160.594 148.356 160.45 148.599 160.244C149.092 159.815 149.343 159.251 149.523 158.839C149.72 158.382 150.25 157.164 149.523 156.17C148.904 155.32 147.809 155.221 146.875 155.552C146.328 155.624 145.78 155.92 145.332 156.394C145.062 156.681 144.829 157.039 144.677 157.433C144.542 157.648 144.425 157.881 144.327 158.122C143.878 159.215 144.003 160.629 145.116 161.247C145.152 161.265 145.197 161.292 145.251 161.31Z" fill="black"/>
<path d="M146.785 183.83C147.45 184.125 148.284 184.027 148.939 183.552C149.092 183.445 149.227 183.328 149.343 183.203C149.622 183.114 149.891 182.97 150.133 182.764C150.627 182.335 150.878 181.77 151.058 181.359C151.255 180.902 151.785 179.684 151.058 178.69C150.438 177.84 149.343 177.741 148.41 178.072C147.862 178.144 147.315 178.439 146.866 178.914C146.597 179.201 146.364 179.559 146.211 179.953C146.076 180.168 145.96 180.4 145.861 180.642C145.412 181.735 145.538 183.149 146.651 183.767C146.687 183.785 146.732 183.812 146.785 183.83Z" fill="black"/>
<path d="M140.243 172.816C140.656 172.995 141.131 173.031 141.598 172.906C142.514 172.924 143.402 172.458 143.86 171.679C144.093 171.276 144.201 170.819 144.174 170.381C144.318 169.682 144.174 168.93 143.573 168.438C143.205 168.142 142.487 167.793 141.401 168.294C140.925 168.42 140.512 168.697 140.234 169.073C139.938 169.324 139.624 169.637 139.417 170.049C138.951 170.954 139.148 172.019 139.884 172.592C139.983 172.682 140.108 172.762 140.243 172.816Z" fill="black"/>
<path d="M149.981 137.42C150.394 137.599 150.869 137.635 151.336 137.51C152.251 137.527 153.14 137.062 153.598 136.283C153.831 135.88 153.939 135.423 153.912 134.984C154.055 134.286 153.912 133.534 153.31 133.041C152.942 132.746 152.224 132.397 151.138 132.898C150.663 133.024 150.25 133.301 149.972 133.677C149.676 133.928 149.361 134.241 149.155 134.653C148.688 135.558 148.886 136.623 149.622 137.196C149.72 137.286 149.846 137.366 149.981 137.42Z" fill="black"/>
<path d="M103.553 165.715L86.4563 160.334C86.1511 161.444 85.8999 162.537 85.6665 163.611C91.6348 165.527 97.5942 167.542 103.562 169.297V165.715H103.553Z" fill="#1A1A1A" stroke="#1A1A1A" stroke-width="0.870861" stroke-miterlimit="10" stroke-linecap="round" stroke-linejoin="round"/>
<path d="M168.155 160.45L151.426 165.715V169.369C157.17 167.73 162.994 166.02 168.729 164.059C168.577 162.877 168.397 161.677 168.155 160.45Z" fill="#1A1A1A" stroke="#1A1A1A" stroke-width="0.870861" stroke-miterlimit="10" stroke-linecap="round" stroke-linejoin="round"/>
<path d="M116.047 129.701C116.047 129.701 116.235 141.19 128.387 141.315C140.539 141.44 141.688 130.615 141.688 130.615C141.688 130.615 127.894 127.499 116.047 129.701Z" fill="#020203"/>
<path d="M120.193 127.194L120.731 133.561C120.731 133.561 121.728 138.056 128.602 138.056C136.303 138.056 137.434 133.561 137.434 133.561L137.533 125.654L137.559 123.836C132.453 126.066 124.214 126.908 120.193 127.194Z" fill="white" stroke="black" stroke-width="1.00678" stroke-miterlimit="10"/>
<path d="M137.631 117.748L119.556 119.646L120.022 125.171L120.193 127.194C124.214 126.908 132.453 126.075 137.559 123.827L137.631 117.748Z" fill="#1A1A1A" stroke="#1A1A1A" stroke-width="1.00678" stroke-miterlimit="10"/>
<path d="M152.844 69.7169C155.716 76.0655 157.125 80.9008 157.125 97.2333C157.125 109.975 146.929 122.448 131.331 123.46C116.675 124.409 101.444 118.527 96.8762 98.0124C92.308 77.4982 98.7789 61.1656 117.438 56.6079C136.097 52.0502 149.469 62.2401 152.844 69.7169Z" fill="white" stroke="black" stroke-width="1.00678" stroke-miterlimit="10"/>
<path d="M149.882 54.056C170.551 61.6581 164.556 96.0783 162.698 97.4483C160.32 99.2033 159.027 100.618 156.757 98.7287C154.486 96.8394 156.272 96.8752 154.441 94.565C149.038 87.7508 145.682 71.7764 143.339 67.1292C142.146 64.7652 141.06 62.1775 141.401 59.5539C141.742 56.9303 144.03 54.3873 146.66 54.6917" fill="#1A1A1A"/>
<path d="M162.222 98.5854C166.432 91.6907 167.778 83.1125 165.884 75.2596C163.99 67.4067 158.875 60.3777 151.982 56.1512" stroke="#010202" stroke-width="0.588058" stroke-miterlimit="10"/>
<path d="M97.7379 95.0575C97.7379 95.0575 107.646 84.0258 109.19 74.3373C109.19 74.3373 135.486 86.0226 151.067 71.7406C154.271 68.8036 157.349 59.724 152.817 58.4346C152.817 58.4346 155.294 45.2629 141.158 47.197C127.023 49.1311 124.69 46.812 116.477 47.2418C108.274 47.6716 101.139 56.9213 101.139 56.9213C82.0228 68.9827 88.9784 92.2548 91.249 95.0575C97.1635 102.382 97.7379 95.0575 97.7379 95.0575Z" fill="#1A1A1A"/>
<path d="M102.485 57.8257C96.4094 60.3776 91.4463 65.4457 89.0141 71.5615C86.5909 77.6772 86.7435 84.7601 89.418 90.7684C90.504 93.2039 92.1284 95.5857 94.5696 96.6782" stroke="#010202" stroke-width="0.588058" stroke-miterlimit="10"/>
<path d="M100.807 58.748C99.0392 57.8705 95.9787 55.3543 97.5135 54.1276C98.4469 53.3754 99.6405 55.3185 100.296 56.3214C100.062 55.22 99.829 54.1186 99.5956 53.0262C99.5328 52.7486 99.479 52.4531 99.5328 52.1666C99.5867 51.8801 99.7841 51.6114 100.071 51.5577C100.493 51.4861 100.825 51.898 101.041 52.2741C102.037 54.038 102.683 55.999 102.934 58.0048" fill="#1A1A1A"/>
<path d="M154.055 94.4486C154.055 94.4486 165.05 90.4639 165.615 101.71C166.082 110.844 158.067 112.778 153.158 109.438" fill="white"/>
<path d="M154.055 94.4486C154.055 94.4486 165.05 90.4639 165.615 101.71C166.082 110.844 158.067 112.778 153.158 109.438" stroke="black" stroke-width="1.00678" stroke-miterlimit="10"/>
<path d="M154.477 107.065C154.504 107.065 154.54 107.056 154.567 107.047C154.684 106.993 154.729 106.859 154.675 106.752C154.648 106.698 152.242 101.29 156.021 98.7735C157.349 97.887 158.66 97.5825 159.916 97.8512C162.088 98.3257 163.398 100.394 163.407 100.412C163.47 100.52 163.614 100.546 163.721 100.484C163.829 100.421 163.856 100.278 163.793 100.17C163.739 100.081 162.375 97.9228 160.015 97.4035C158.633 97.108 157.206 97.4303 155.77 98.3884C151.668 101.119 154.235 106.877 154.262 106.931C154.316 107.02 154.396 107.065 154.477 107.065Z" fill="#020203"/>
<path d="M160.051 102.66C160.122 102.66 160.185 102.633 160.23 102.57C160.302 102.472 160.284 102.328 160.185 102.257C160.149 102.23 156.353 99.4629 153.544 102.275C153.454 102.364 153.454 102.507 153.544 102.597C153.634 102.686 153.777 102.686 153.867 102.597C156.407 100.063 159.889 102.597 159.925 102.615C159.952 102.642 159.997 102.66 160.051 102.66Z" fill="#020203"/>
<path d="M129.401 108.355C125.946 108.355 125.551 105.489 125.542 105.462C125.524 105.337 125.614 105.229 125.739 105.212C125.856 105.194 125.973 105.283 125.991 105.409C126.009 105.525 126.404 108.229 130.029 107.88C130.155 107.88 130.263 107.961 130.281 108.086C130.29 108.211 130.2 108.319 130.074 108.337C129.832 108.346 129.608 108.355 129.401 108.355Z" fill="#020203"/>
<path d="M100.116 94.4486C100.116 94.4486 89.1219 90.4639 88.5565 101.71C88.0808 111.139 97.0647 113.315 101.938 109.51" fill="white"/>
<path d="M100.116 94.4486C100.116 94.4486 89.1219 90.4639 88.5565 101.71C88.0808 111.139 97.0647 113.315 101.938 109.51" stroke="black" stroke-width="1.00678" stroke-miterlimit="10"/>
<path d="M108.714 89.7386C108.714 89.7386 106.461 87.7418 111.218 85.2525C115.975 82.7633 117.644 83.3095 118.416 84.5541C119.116 85.6913 118.03 87.3926 115.329 88.7447C112.089 90.3565 109.935 90.8848 108.714 89.7386Z" fill="#1A1A1A"/>
<path d="M117.824 97.3408C117.824 98.872 116.8 100.117 115.535 100.117C114.269 100.117 113.246 98.872 113.246 97.3408C113.246 95.8096 114.269 94.565 115.535 94.565C116.8 94.565 117.824 95.8096 117.824 97.3408Z" fill="#020203"/>
<path d="M147.539 89.7386C147.539 89.7386 149.792 87.7418 145.035 85.2525C140.279 82.7633 138.609 83.3095 137.838 84.5541C137.138 85.6913 138.224 87.3926 140.925 88.7447C144.165 90.3565 146.319 90.8848 147.539 89.7386Z" fill="#1A1A1A"/>
<path d="M137.425 97.3408C137.425 98.872 138.448 100.117 139.713 100.117C140.979 100.117 142.002 98.872 142.002 97.3408C142.002 95.8096 140.979 94.565 139.713 94.565C138.448 94.565 137.425 95.8096 137.425 97.3408Z" fill="#020203"/>
<path d="M99.6943 107.065C99.6674 107.065 99.6315 107.056 99.6046 107.047C99.4879 106.993 99.443 106.859 99.4969 106.752C99.5238 106.698 101.929 101.29 98.1506 98.7735C96.8223 97.887 95.512 97.5825 94.2555 97.8512C92.0836 98.3257 90.7732 100.394 90.7643 100.412C90.7014 100.52 90.5578 100.546 90.4501 100.484C90.3424 100.421 90.3155 100.278 90.3783 100.17C90.4322 100.081 91.7964 97.9228 94.1568 97.4035C95.5389 97.108 96.9659 97.4303 98.4019 98.3884C102.503 101.119 99.9366 106.877 99.9097 106.931C99.8559 107.02 99.7751 107.065 99.6943 107.065Z" fill="#020203"/>
<path d="M94.121 102.66C94.0492 102.66 93.9864 102.633 93.9415 102.57C93.8697 102.472 93.8876 102.328 93.9864 102.257C94.0223 102.23 97.8187 99.4629 100.628 102.275C100.718 102.364 100.718 102.507 100.628 102.597C100.538 102.686 100.394 102.686 100.305 102.597C97.7648 100.063 94.2825 102.597 94.2466 102.615C94.2197 102.642 94.1659 102.66 94.121 102.66Z" fill="#020203"/>
<path d="M130.164 102.91C130.074 102.91 129.994 102.866 129.958 102.776C129.904 102.66 129.958 102.525 130.065 102.481C130.083 102.472 131.896 101.639 132.695 100.018C133.323 98.7466 133.126 96.8483 132.282 96.0245C131.771 95.532 131.089 95.4873 130.29 95.9081C130.263 95.9171 130.227 95.9439 130.173 95.9708C127.391 97.5826 126.134 96.8573 125.569 95.9708C124.537 94.3322 125.425 81.4112 125.533 79.9427C125.542 79.8173 125.65 79.7278 125.775 79.7368C125.901 79.7457 125.991 79.8532 125.982 79.9785C125.695 83.9273 125.138 94.4575 125.946 95.729C126.61 96.7856 127.956 96.7319 129.94 95.5858C130.003 95.55 130.047 95.5231 130.074 95.5052C131.044 95.0037 131.941 95.0664 132.587 95.7022C133.575 96.6603 133.808 98.7735 133.09 100.224C132.219 101.988 130.326 102.857 130.245 102.892C130.227 102.901 130.2 102.91 130.164 102.91Z" fill="#020203"/>
<path d="M132.866 97.1617C132.605 90.4818 137.847 84.8406 144.542 84.581C151.237 84.3213 156.891 89.5506 157.152 96.2305C157.412 102.91 152.171 108.551 145.475 108.811C138.78 109.062 133.126 103.842 132.866 97.1617ZM133.512 97.1348C133.754 103.457 139.112 108.408 145.457 108.166C151.794 107.916 156.748 102.57 156.506 96.2484C156.263 89.9267 150.905 84.975 144.56 85.2167C138.224 85.4585 133.261 90.8042 133.512 97.1348Z" fill="#1A1A1A"/>
<path d="M99.6674 98.4422C99.4071 91.7623 104.648 86.1211 111.344 85.8614C118.039 85.6018 123.693 90.831 123.953 97.5109C124.214 104.191 118.972 109.832 112.277 110.092C105.582 110.342 99.9276 105.122 99.6674 98.4422ZM100.314 98.4153C100.556 104.737 105.914 109.689 112.259 109.438C118.595 109.196 123.559 103.851 123.316 97.5199C123.074 91.1982 117.716 86.2465 111.371 86.4882C105.025 86.7479 100.071 92.0846 100.314 98.4153Z" fill="#1A1A1A"/>
<path d="M123.576 96.1499C123.63 96.1499 123.684 96.1319 123.738 96.0961C128.252 93.2129 133.045 95.7111 133.09 95.738C133.251 95.8185 133.44 95.7648 133.53 95.6036C133.61 95.4425 133.557 95.2544 133.395 95.1649C133.341 95.138 128.225 92.4697 123.388 95.5499C123.235 95.6484 123.191 95.8454 123.289 95.9976C123.352 96.0961 123.469 96.1499 123.576 96.1499Z" fill="#1A1A1A"/>
</g>
<defs>
<filter id="filter0_d_189_356" x="0.455347" y="0.865367" width="260.089" height="241.089" filterUnits="userSpaceOnUse" color-interpolation-filters="sRGB">
<feFlood flood-opacity="0" result="BackgroundImageFix"/>
<feColorMatrix in="SourceAlpha" type="matrix" values="0 0 0 0 0 0 0 0 0 0 0 0 0 0 0 0 0 0 127 0" result="hardAlpha"/>
<feOffset dy="0.41002"/>
<feGaussianBlur stdDeviation="8.27233"/>
<feComposite in2="hardAlpha" operator="out"/>
<feColorMatrix type="matrix" values="0 0 0 0 0.686275 0 0 0 0 0.756863 0 0 0 0 0.807843 0 0 0 0.48 0"/>
<feBlend mode="normal" in2="BackgroundImageFix" result="effect1_dropShadow_189_356"/>
<feBlend mode="normal" in="SourceGraphic" in2="effect1_dropShadow_189_356" result="shape"/>
</filter>
<clipPath id="clip0_189_356">
<rect width="86" height="137" fill="white" transform="translate(83 47)"/>
</clipPath>
</defs>
</svg>
