<svg width="252" height="242" viewBox="0 0 252 242" fill="none" xmlns="http://www.w3.org/2000/svg">
<g filter="url(#filter0_d_193_503)">
<path d="M191.937 31.6507C211.6 43.2109 224.217 64.9799 230.28 87.4996C236.507 110.019 236.343 133.29 227.003 152.056C217.827 170.973 199.639 185.535 180.139 197.996C160.804 210.457 139.994 220.966 117.054 223.819C94.1138 226.671 69.0434 221.717 52.4938 208.506C35.9441 195.144 27.915 173.225 22.8354 152.056C17.7558 130.888 15.6256 110.62 17.9196 87.7999C20.3775 64.9799 27.2596 39.7578 44.9563 27.5972C62.653 15.4366 91.0005 16.4875 118.365 17.6885C145.893 18.7394 172.438 20.0906 191.937 31.6507Z" fill="#232323" fill-opacity="0.18" shape-rendering="crispEdges"/>
</g>
<g clip-path="url(#clip0_193_503)">
<path d="M79.2887 174.343C77.3071 184.779 77.6693 193.351 77.6693 193.752H96.8114V180.699C90.9772 178.744 85.133 176.489 79.2887 174.343Z" fill="white" stroke="black" stroke-width="1.00678" stroke-miterlimit="10"/>
<path d="M150.466 180.8V193.752H167.354C167.354 193.752 168.642 185.311 167.465 174.855C161.842 177.05 156.109 178.965 150.466 180.8Z" fill="white" stroke="black" stroke-width="1.00678" stroke-miterlimit="10"/>
<path d="M169.215 170.815C166.037 154.504 155.314 135.477 122.492 135.477C93.4315 135.477 82.065 154.394 77.639 170.684L96.8013 176.719V193.762H150.455V176.719L169.215 170.815Z" fill="white" stroke="black" stroke-width="1.00678" stroke-miterlimit="10"/>
<path d="M105.723 145.903C106.226 145.903 106.729 145.722 107.152 145.382C108.097 144.991 108.801 144.108 108.912 143.106C108.972 142.585 108.872 142.073 108.641 141.632C108.47 140.85 107.977 140.138 107.132 139.918C106.619 139.778 105.723 139.748 104.838 140.76C104.406 141.101 104.104 141.572 103.993 142.083C103.802 142.474 103.631 142.935 103.601 143.457C103.541 144.59 104.225 145.602 105.231 145.843C105.391 145.883 105.562 145.903 105.723 145.903Z" fill="black"/>
<path d="M90.6754 149.351C90.8564 149.351 91.0274 149.321 91.1984 149.271C91.6511 149.131 92.2345 148.75 92.5262 147.777C92.8582 147.176 92.9386 146.534 92.9688 146.073C92.9688 146.043 92.9688 146.013 92.9789 145.983L93.2505 145.422C93.4114 145.091 93.6327 144.63 93.6528 144.078C93.683 143.236 93.2203 142.474 92.5061 142.174C91.6813 141.833 90.7659 142.133 90.0417 142.976C89.9411 143.096 89.8405 143.226 89.7399 143.356C89.6192 143.437 89.4985 143.527 89.3878 143.637C88.9251 144.088 88.7139 144.64 88.563 145.051C88.3819 145.522 88.1707 146.103 88.1808 146.775C88.2009 147.727 88.7139 148.569 89.4884 148.93C89.8304 149.201 90.2529 149.351 90.6754 149.351Z" fill="black"/>
<path d="M131.877 165.842C132.017 165.842 132.168 165.822 132.329 165.772C132.742 165.822 133.154 165.642 133.406 165.311C133.526 165.141 133.647 164.97 133.758 164.79C133.939 164.659 134.08 164.469 134.16 164.248L134.251 163.988C134.542 163.597 134.753 163.146 134.854 162.674C134.904 162.464 134.935 162.243 134.945 162.023C135.045 161.722 135.015 161.391 134.874 161.121C134.874 161.06 134.874 161 134.874 160.95C134.884 160.85 134.884 160.74 134.884 160.639C134.914 159.256 134.22 158.695 133.808 158.484C133.164 158.153 132.339 158.233 131.706 158.705C131.675 158.725 131.645 158.745 131.625 158.765C131.444 158.805 131.273 158.875 131.102 158.975C130.75 159.186 130.458 159.507 130.267 159.898C129.784 160.309 129.412 160.9 129.241 161.562C129 162.484 129.211 163.376 129.794 163.928C129.945 164.278 130.167 164.579 130.448 164.82C130.499 164.97 130.579 165.121 130.68 165.261C130.931 165.592 131.283 165.802 131.696 165.842C131.756 165.842 131.816 165.842 131.877 165.842Z" fill="black"/>
<path d="M108.812 168.82C109.626 168.82 110.431 168.339 110.894 167.567C111.004 167.386 111.085 167.206 111.145 167.025C111.387 166.805 111.598 166.534 111.749 166.213C112.061 165.552 112.061 164.86 112.051 164.359C112.051 163.797 112.041 162.314 110.833 161.622C109.807 161.03 108.651 161.421 107.836 162.193C107.313 162.514 106.88 163.055 106.639 163.757C106.488 164.178 106.418 164.649 106.438 165.121C106.398 165.401 106.387 165.692 106.387 165.983C106.428 167.296 107.202 168.699 108.621 168.82C108.691 168.81 108.751 168.82 108.812 168.82Z" fill="black"/>
<path d="M121.767 179.316C122.27 179.316 122.773 179.135 123.196 178.795C124.141 178.404 124.846 177.521 124.956 176.519C125.017 175.998 124.916 175.486 124.685 175.045C124.514 174.263 124.021 173.552 123.176 173.331C122.663 173.191 121.767 173.161 120.882 174.173C120.45 174.514 120.148 174.985 120.037 175.496C119.846 175.887 119.675 176.348 119.645 176.87C119.585 178.003 120.269 179.015 121.275 179.266C121.436 179.296 121.596 179.316 121.767 179.316Z" fill="black"/>
<path d="M140.185 154.043C140.688 154.043 141.191 153.863 141.614 153.522C142.559 153.131 143.263 152.249 143.374 151.246C143.434 150.725 143.334 150.214 143.102 149.772C142.931 148.99 142.439 148.279 141.594 148.058C141.081 147.918 140.185 147.888 139.3 148.9C138.868 149.241 138.566 149.712 138.455 150.224C138.264 150.615 138.093 151.076 138.063 151.597C138.003 152.73 138.687 153.742 139.692 153.993C139.863 154.023 140.024 154.043 140.185 154.043Z" fill="black"/>
<path d="M158.674 170.674C159.177 170.674 159.68 170.494 160.102 170.153C161.048 169.762 161.752 168.88 161.862 167.877C161.923 167.356 161.822 166.845 161.591 166.404C161.42 165.622 160.927 164.91 160.082 164.69C159.569 164.549 158.674 164.519 157.788 165.532C157.356 165.872 157.054 166.344 156.943 166.855C156.752 167.246 156.581 167.707 156.551 168.228C156.491 169.361 157.175 170.374 158.181 170.624C158.352 170.654 158.513 170.674 158.674 170.674Z" fill="black"/>
<path d="M101.267 180.399C101.77 180.399 102.273 180.218 102.696 179.877C103.641 179.486 104.346 178.604 104.456 177.602C104.517 177.08 104.416 176.569 104.185 176.128C104.014 175.346 103.521 174.634 102.676 174.414C102.163 174.273 101.267 174.243 100.382 175.256C99.9498 175.597 99.648 176.068 99.5373 176.579C99.3462 176.97 99.1752 177.431 99.145 177.952C99.0746 179.085 99.7687 180.098 100.775 180.338C100.936 180.389 101.107 180.399 101.267 180.399Z" fill="black"/>
<path d="M107.252 194.554C107.997 194.885 108.932 194.774 109.667 194.243C109.838 194.123 109.988 193.992 110.119 193.852C110.431 193.752 110.733 193.591 111.004 193.351C111.558 192.87 111.839 192.238 112.04 191.777C112.262 191.266 112.855 189.902 112.04 188.779C111.346 187.827 110.119 187.717 109.073 188.088C108.46 188.168 107.846 188.499 107.343 189.03C107.041 189.351 106.78 189.752 106.609 190.193C106.458 190.433 106.327 190.694 106.216 190.965C105.713 192.188 105.854 193.772 107.102 194.464C107.142 194.504 107.192 194.534 107.252 194.554Z" fill="black"/>
<path d="M117.311 157.562C117.774 157.762 118.307 157.802 118.83 157.662C119.856 157.682 120.852 157.161 121.365 156.289C121.627 155.838 121.747 155.326 121.717 154.835C121.878 154.053 121.717 153.211 121.043 152.66C120.631 152.329 119.826 151.938 118.609 152.499C118.076 152.64 117.613 152.95 117.301 153.371C116.969 153.652 116.617 154.003 116.386 154.464C115.863 155.477 116.084 156.67 116.909 157.311C117.02 157.411 117.161 157.492 117.311 157.562Z" fill="black"/>
<path d="M85.2838 168.118C85.7868 168.118 86.2897 167.938 86.7122 167.597C87.6577 167.206 88.3619 166.324 88.4725 165.321C88.5329 164.8 88.4323 164.289 88.2009 163.847C88.0299 163.065 87.537 162.354 86.6921 162.133C86.1791 161.993 85.2838 161.963 84.3987 162.975C83.9661 163.316 83.6644 163.787 83.5537 164.299C83.3626 164.69 83.1916 165.151 83.1614 165.672C83.1011 166.805 83.7851 167.817 84.791 168.058C84.962 168.098 85.1229 168.118 85.2838 168.118Z" fill="black"/>
<path d="M95.1919 160.198C95.6546 160.399 96.1877 160.439 96.7108 160.299C97.7368 160.319 98.7326 159.797 99.2456 158.925C99.5072 158.474 99.6279 157.963 99.5977 157.472C99.7586 156.69 99.5977 155.848 98.9238 155.296C98.5113 154.965 97.7066 154.574 96.4895 155.136C95.9564 155.276 95.4937 155.587 95.1818 156.008C94.8499 156.289 94.4978 156.64 94.2665 157.101C93.7434 158.113 93.9647 159.306 94.7895 159.948C94.9002 160.048 95.041 160.128 95.1919 160.198Z" fill="black"/>
<path d="M165.976 162.715C166.137 162.785 166.308 162.835 166.489 162.855C166.962 162.905 167.646 162.795 168.31 162.023C168.853 161.612 169.195 161.06 169.406 160.649C169.416 160.619 169.437 160.599 169.447 160.569L169.919 160.168C170.201 159.928 170.583 159.597 170.835 159.096C171.207 158.334 171.096 157.451 170.553 156.89C169.94 156.249 168.974 156.148 167.978 156.629C167.837 156.7 167.686 156.78 167.556 156.86C167.415 156.88 167.264 156.92 167.123 156.97C166.509 157.191 166.097 157.622 165.795 157.923C165.443 158.284 165.001 158.725 164.739 159.346C164.367 160.218 164.498 161.201 165.061 161.842C165.262 162.233 165.584 162.544 165.976 162.715Z" fill="black"/>
<path d="M154.922 158.183C155.425 158.183 155.928 158.003 156.35 157.662C157.296 157.271 158 156.389 158.11 155.386C158.171 154.865 158.07 154.354 157.839 153.913C157.668 153.131 157.175 152.419 156.33 152.198C155.817 152.058 154.922 152.028 154.036 153.041C153.604 153.381 153.302 153.853 153.192 154.364C153 154.755 152.829 155.216 152.799 155.737C152.729 156.87 153.423 157.883 154.429 158.133C154.6 158.173 154.761 158.183 154.922 158.183Z" fill="black"/>
<path d="M125.932 192.739C126.113 192.739 126.284 192.709 126.465 192.659C126.918 192.519 127.501 192.138 127.793 191.165C128.125 190.564 128.205 189.922 128.235 189.461C128.235 189.431 128.235 189.401 128.245 189.371L128.517 188.809C128.678 188.479 128.899 188.017 128.919 187.466C128.949 186.624 128.487 185.862 127.773 185.561C126.948 185.221 126.032 185.521 125.308 186.363C125.208 186.484 125.107 186.614 125.006 186.744C124.886 186.825 124.765 186.915 124.654 187.025C124.192 187.476 123.98 188.028 123.829 188.439C123.648 188.91 123.437 189.491 123.447 190.163C123.467 191.115 123.98 191.957 124.755 192.318C125.087 192.589 125.509 192.739 125.932 192.739Z" fill="black"/>
<path d="M143.545 171.777C144.289 172.108 145.225 171.998 145.959 171.466C146.13 171.346 146.281 171.216 146.412 171.075C146.724 170.975 147.025 170.815 147.297 170.584C147.85 170.103 148.132 169.471 148.333 169.01C148.554 168.499 149.148 167.136 148.333 166.023C147.639 165.07 146.412 164.96 145.366 165.331C144.752 165.411 144.139 165.742 143.636 166.273C143.334 166.594 143.072 166.995 142.901 167.436C142.75 167.677 142.62 167.938 142.509 168.208C142.006 169.431 142.147 171.015 143.394 171.707C143.434 171.727 143.485 171.757 143.545 171.777Z" fill="black"/>
<path d="M145.265 196.99C146.009 197.321 146.945 197.21 147.679 196.679C147.85 196.559 148.001 196.428 148.132 196.288C148.444 196.188 148.745 196.027 149.017 195.797C149.57 195.316 149.852 194.684 150.053 194.223C150.274 193.712 150.868 192.348 150.053 191.235C149.359 190.283 148.132 190.173 147.086 190.544C146.472 190.624 145.859 190.955 145.356 191.486C145.054 191.807 144.792 192.208 144.621 192.649C144.47 192.89 144.34 193.15 144.229 193.421C143.726 194.644 143.867 196.228 145.114 196.92C145.154 196.94 145.205 196.97 145.265 196.99Z" fill="black"/>
<path d="M137.932 184.659C138.395 184.86 138.928 184.9 139.451 184.759C140.477 184.779 141.473 184.258 141.986 183.386C142.247 182.935 142.368 182.424 142.338 181.932C142.499 181.15 142.338 180.308 141.664 179.757C141.252 179.426 140.447 179.035 139.23 179.597C138.697 179.737 138.234 180.048 137.922 180.469C137.59 180.749 137.238 181.1 137.007 181.561C136.484 182.574 136.705 183.767 137.53 184.409C137.64 184.509 137.781 184.599 137.932 184.659Z" fill="black"/>
<path d="M148.846 145.031C149.309 145.231 149.842 145.271 150.365 145.131C151.391 145.151 152.387 144.63 152.9 143.757C153.161 143.306 153.282 142.795 153.252 142.304C153.413 141.522 153.252 140.68 152.578 140.128C152.166 139.798 151.361 139.407 150.144 139.968C149.611 140.108 149.148 140.419 148.836 140.84C148.504 141.121 148.152 141.472 147.921 141.933C147.398 142.945 147.619 144.138 148.444 144.78C148.554 144.88 148.695 144.97 148.846 145.031Z" fill="black"/>
<path d="M96.8113 176.709L77.6491 170.684C77.3071 171.927 77.0254 173.151 76.7639 174.354C83.4531 176.499 90.1322 178.754 96.8214 180.719V176.709H96.8113Z" fill="#1A1A1A" stroke="#1A1A1A" stroke-width="0.870861" stroke-miterlimit="10" stroke-linecap="round" stroke-linejoin="round"/>
<path d="M169.215 170.815L150.466 176.709V180.8C156.903 178.965 163.432 177.05 169.859 174.855C169.688 173.531 169.487 172.188 169.215 170.815Z" fill="#1A1A1A" stroke="#1A1A1A" stroke-width="0.870861" stroke-miterlimit="10" stroke-linecap="round" stroke-linejoin="round"/>
<path d="M110.813 136.389C110.813 136.389 111.025 149.251 124.644 149.391C138.264 149.532 139.552 137.412 139.552 137.412C139.552 137.412 124.091 133.923 110.813 136.389Z" fill="#020203"/>
<path d="M115.46 133.582L116.064 140.71C116.064 140.71 117.181 145.742 124.886 145.742C133.516 145.742 134.784 140.71 134.784 140.71L134.894 131.858L134.924 129.823C129.201 132.319 119.967 133.261 115.46 133.582Z" fill="white" stroke="black" stroke-width="1.00678" stroke-miterlimit="10"/>
<path d="M135.005 123.006L114.746 125.131L115.269 131.317L115.461 133.582C119.967 133.261 129.201 132.329 134.925 129.813L135.005 123.006Z" fill="#1A1A1A" stroke="#1A1A1A" stroke-width="1.00678" stroke-miterlimit="10"/>
<path d="M152.055 69.2322C155.274 76.3399 156.853 81.7533 156.853 100.039C156.853 114.304 145.426 128.269 127.944 129.402C111.517 130.464 94.4475 123.878 89.3275 100.911C84.2075 77.9438 91.46 59.6584 112.372 54.5557C133.285 49.453 148.273 60.8614 152.055 69.2322Z" fill="white" stroke="black" stroke-width="1.00678" stroke-miterlimit="10"/>
<path d="M148.735 51.6986C171.901 60.2098 165.182 98.7456 163.1 100.279C160.434 102.244 158.985 103.828 156.441 101.713C153.896 99.5977 155.897 99.6378 153.845 97.0513C147.79 89.4224 144.028 71.5379 141.402 66.335C140.065 63.6884 138.847 60.7912 139.23 57.8539C139.612 54.9166 142.177 52.0695 145.124 52.4104" fill="#1A1A1A"/>
<path d="M162.566 101.553C167.284 93.8333 168.793 84.2295 166.67 75.4376C164.548 66.6458 158.814 58.7762 151.089 54.0444" stroke="#010202" stroke-width="0.588058" stroke-miterlimit="10"/>
<path d="M90.2932 97.6027C90.2932 97.6027 101.398 85.252 103.128 74.4051C103.128 74.4051 132.601 87.4876 150.063 71.4978C153.654 68.2097 157.105 58.0444 152.025 56.6008C152.025 56.6008 154.801 41.8541 138.958 44.0195C123.115 46.1849 120.5 43.5885 111.296 44.0696C102.102 44.5508 94.1056 54.9066 94.1056 54.9066C72.6801 68.4102 80.4757 94.4649 83.0206 97.6027C89.6495 105.803 90.2932 97.6027 90.2932 97.6027Z" fill="#1A1A1A"/>
<path d="M95.6143 55.9191C88.8044 58.7762 83.2418 64.4503 80.5159 71.2973C77.8 78.1443 77.971 86.074 80.9685 92.8007C82.1856 95.5275 84.0063 98.1942 86.7423 99.4172" stroke="#010202" stroke-width="0.588058" stroke-miterlimit="10"/>
<path d="M93.7333 56.9517C91.7517 55.9692 88.3216 53.1522 90.0417 51.7788C91.0878 50.9367 92.4256 53.1121 93.1599 54.2349C92.8984 53.0018 92.6369 51.7688 92.3753 50.5457C92.3049 50.235 92.2446 49.9041 92.3049 49.5833C92.3653 49.2625 92.5866 48.9618 92.9085 48.9016C93.3812 48.8214 93.7534 49.2826 93.9948 49.7036C95.1114 51.6786 95.8356 53.874 96.1172 56.1196" fill="#1A1A1A"/>
<path d="M153.413 96.921C153.413 96.921 165.735 92.4599 166.369 105.051C166.892 115.277 157.909 117.442 152.407 113.703" fill="white"/>
<path d="M153.413 96.921C153.413 96.921 165.735 92.4599 166.369 105.051C166.892 115.277 157.909 117.442 152.407 113.703" stroke="black" stroke-width="1.00678" stroke-miterlimit="10"/>
<path d="M153.886 111.046C153.916 111.046 153.956 111.036 153.986 111.026C154.117 110.966 154.167 110.816 154.107 110.695C154.077 110.635 151.381 104.58 155.616 101.763C157.105 100.771 158.573 100.43 159.981 100.73C162.416 101.262 163.884 103.578 163.894 103.598C163.965 103.718 164.126 103.748 164.246 103.678C164.367 103.608 164.397 103.447 164.327 103.327C164.266 103.227 162.738 100.811 160.092 100.229C158.543 99.8984 156.944 100.259 155.334 101.332C150.737 104.39 153.614 110.836 153.644 110.896C153.705 110.996 153.795 111.046 153.886 111.046Z" fill="#020203"/>
<path d="M160.132 106.114C160.213 106.114 160.283 106.084 160.333 106.014C160.414 105.903 160.394 105.743 160.283 105.663C160.243 105.633 155.988 102.535 152.839 105.683C152.739 105.783 152.739 105.943 152.839 106.044C152.94 106.144 153.101 106.144 153.202 106.044C156.048 103.207 159.951 106.044 159.991 106.064C160.022 106.094 160.072 106.114 160.132 106.114Z" fill="#020203"/>
<path d="M125.781 112.49C121.908 112.49 121.466 109.282 121.456 109.252C121.435 109.111 121.536 108.991 121.677 108.971C121.808 108.951 121.938 109.051 121.959 109.192C121.979 109.322 122.421 112.349 126.485 111.958C126.626 111.958 126.747 112.049 126.767 112.189C126.777 112.329 126.676 112.45 126.535 112.47C126.264 112.48 126.012 112.49 125.781 112.49Z" fill="#020203"/>
<path d="M92.9588 96.921C92.9588 96.921 80.6366 92.4599 80.0029 105.051C79.4698 115.607 89.5387 118.044 95.0007 113.783" fill="white"/>
<path d="M92.9588 96.921C92.9588 96.921 80.6366 92.4599 80.0029 105.051C79.4698 115.607 89.5387 118.044 95.0007 113.783" stroke="black" stroke-width="1.00678" stroke-miterlimit="10"/>
<path d="M102.595 91.6479C102.595 91.6479 100.07 89.4123 105.402 86.6254C110.733 83.8385 112.604 84.45 113.469 85.8435C114.253 87.1166 113.036 89.0214 110.009 90.5351C106.377 92.3396 103.963 92.9311 102.595 91.6479Z" fill="#1A1A1A"/>
<path d="M112.805 100.159C112.805 101.873 111.658 103.267 110.24 103.267C108.822 103.267 107.675 101.873 107.675 100.159C107.675 98.4448 108.822 97.0513 110.24 97.0513C111.658 97.0513 112.805 98.4448 112.805 100.159Z" fill="#020203"/>
<path d="M146.11 91.6479C146.11 91.6479 148.635 89.4123 143.304 86.6254C137.972 83.8385 136.101 84.45 135.236 85.8435C134.452 87.1166 135.669 89.0214 138.697 90.5351C142.328 92.3396 144.742 92.9311 146.11 91.6479Z" fill="#1A1A1A"/>
<path d="M134.774 100.159C134.774 101.873 135.92 103.267 137.339 103.267C138.757 103.267 139.904 101.873 139.904 100.159C139.904 98.4448 138.757 97.0513 137.339 97.0513C135.92 97.0513 134.774 98.4448 134.774 100.159Z" fill="#020203"/>
<path d="M92.486 111.046C92.4558 111.046 92.4156 111.036 92.3854 111.026C92.2546 110.966 92.2043 110.816 92.2647 110.695C92.2949 110.635 94.9907 104.58 90.7559 101.763C89.2671 100.771 87.7986 100.43 86.3903 100.73C83.956 101.262 82.4874 103.578 82.4774 103.598C82.407 103.718 82.246 103.748 82.1253 103.678C82.0046 103.608 81.9744 103.447 82.0449 103.327C82.1052 103.227 83.6342 100.811 86.2797 100.229C87.8287 99.8984 89.4281 100.259 91.0375 101.332C95.6344 104.39 92.7576 110.836 92.7274 110.896C92.6671 110.996 92.5765 111.046 92.486 111.046Z" fill="#020203"/>
<path d="M86.2395 106.114C86.159 106.114 86.0886 106.084 86.0383 106.014C85.9579 105.903 85.978 105.743 86.0886 105.663C86.1289 105.633 90.3838 102.535 93.5322 105.683C93.6328 105.783 93.6328 105.943 93.5322 106.044C93.4316 106.144 93.2707 106.144 93.1701 106.044C90.3234 103.207 86.4206 106.044 86.3803 106.064C86.3502 106.094 86.2898 106.114 86.2395 106.114Z" fill="#020203"/>
<path d="M126.636 106.395C126.535 106.395 126.445 106.344 126.405 106.244C126.344 106.114 126.405 105.964 126.525 105.913C126.546 105.903 128.577 104.971 129.473 103.157C130.177 101.733 129.955 99.6077 129.01 98.6854C128.437 98.1341 127.672 98.0839 126.777 98.5551C126.747 98.5651 126.706 98.5952 126.646 98.6253C123.528 100.43 122.12 99.6177 121.486 98.6253C120.329 96.7907 121.325 82.3248 121.446 80.6807C121.456 80.5403 121.576 80.4401 121.717 80.4501C121.858 80.4601 121.959 80.5804 121.949 80.7208C121.627 85.1418 121.003 96.9311 121.908 98.3546C122.653 99.5375 124.162 99.4774 126.385 98.1942C126.455 98.1541 126.505 98.124 126.535 98.104C127.622 97.5426 128.628 97.6128 129.352 98.3245C130.458 99.3972 130.72 101.763 129.915 103.387C128.94 105.362 126.817 106.334 126.727 106.375C126.706 106.385 126.676 106.395 126.636 106.395Z" fill="#020203"/>
<path d="M129.664 99.9585C129.372 92.48 135.246 86.1643 142.75 85.8735C150.254 85.5828 156.591 91.4374 156.883 98.916C157.175 106.395 151.3 112.71 143.796 113.001C136.293 113.282 129.955 107.437 129.664 99.9585ZM130.388 99.9285C130.66 107.006 136.665 112.55 143.776 112.279C150.878 111.998 156.43 106.014 156.159 98.936C155.887 91.8584 149.882 86.3146 142.77 86.5853C135.669 86.856 130.106 92.8409 130.388 99.9285Z" fill="#1A1A1A"/>
<path d="M92.4557 101.392C92.164 93.9135 98.0384 87.5978 105.542 87.3071C113.046 87.0164 119.383 92.8709 119.675 100.35C119.967 107.828 114.092 114.144 106.588 114.435C99.0845 114.715 92.7474 108.871 92.4557 101.392ZM93.18 101.362C93.4516 108.44 99.4567 113.983 106.568 113.703C113.67 113.432 119.233 107.447 118.961 100.36C118.689 93.2819 112.684 87.7382 105.573 88.0088C98.4609 88.2996 92.9084 94.2744 93.18 101.362Z" fill="#1A1A1A"/>
<path d="M119.253 98.8257C119.313 98.8257 119.373 98.8056 119.434 98.7655C124.493 95.5375 129.865 98.3345 129.915 98.3646C130.096 98.4548 130.307 98.3946 130.408 98.2142C130.498 98.0337 130.438 97.8232 130.257 97.723C130.197 97.6929 124.463 94.7055 119.041 98.154C118.87 98.2643 118.82 98.4849 118.931 98.6553C119.001 98.7655 119.132 98.8257 119.253 98.8257Z" fill="#1A1A1A"/>
</g>
<defs>
<filter id="filter0_d_193_503" x="0.455347" y="0.865367" width="250.64" height="240.687" filterUnits="userSpaceOnUse" color-interpolation-filters="sRGB">
<feFlood flood-opacity="0" result="BackgroundImageFix"/>
<feColorMatrix in="SourceAlpha" type="matrix" values="0 0 0 0 0 0 0 0 0 0 0 0 0 0 0 0 0 0 127 0" result="hardAlpha"/>
<feOffset dy="0.41002"/>
<feGaussianBlur stdDeviation="8.27233"/>
<feComposite in2="hardAlpha" operator="out"/>
<feColorMatrix type="matrix" values="0 0 0 0 0.686275 0 0 0 0 0.756863 0 0 0 0 0.807843 0 0 0 0.48 0"/>
<feBlend mode="normal" in2="BackgroundImageFix" result="effect1_dropShadow_193_503"/>
<feBlend mode="normal" in="SourceGraphic" in2="effect1_dropShadow_193_503" result="shape"/>
</filter>
<clipPath id="clip0_193_503">
<rect width="96.3872" height="153.381" fill="white" transform="translate(73.7754 43.799)"/>
</clipPath>
</defs>
</svg>
