<svg width="377" height="336" viewBox="0 0 377 336" fill="none" xmlns="http://www.w3.org/2000/svg">
<g filter="url(#filter0_d_269_2)">
<path d="M288.946 43.3671C318.781 59.4378 337.926 89.7006 347.125 121.007C356.573 152.313 356.324 184.663 342.152 210.752C328.229 237.049 300.632 257.294 271.045 274.617C241.707 291.94 210.132 306.55 175.324 310.515C140.516 314.48 102.476 307.593 77.3649 289.227C52.2536 270.652 40.0708 240.18 32.3634 210.752C24.656 181.324 21.4238 153.148 24.9046 121.424C28.634 89.7006 39.0763 54.6374 65.928 37.732C92.7797 20.8265 135.792 22.2875 177.313 23.9572C219.082 25.4181 259.36 27.2965 288.946 43.3671Z" fill="#232323" fill-opacity="0.18" shape-rendering="crispEdges"/>
</g>
<g clip-path="url(#clip0_269_2)">
<path d="M127.207 232.371C124.617 245.911 125.09 257.032 125.09 257.552H150.113V240.617C142.487 238.081 134.847 235.155 127.207 232.371Z" fill="white" stroke="black" stroke-width="1.3996" stroke-miterlimit="10"/>
<path d="M220.251 240.747V257.552H242.329C242.329 257.552 244.012 246.6 242.474 233.034C235.123 235.883 227.628 238.367 220.251 240.747Z" fill="white" stroke="black" stroke-width="1.3996" stroke-miterlimit="10"/>
<path d="M244.762 227.793C240.607 206.631 226.589 181.945 183.683 181.945C145.695 181.945 130.836 206.488 125.051 227.624L150.1 235.454V257.565H220.238V235.454L244.762 227.793Z" fill="white" stroke="black" stroke-width="1.3996" stroke-miterlimit="10"/>
<path d="M161.763 195.472C162.421 195.472 163.078 195.238 163.631 194.795C164.867 194.288 165.787 193.143 165.932 191.843C166.011 191.166 165.879 190.503 165.577 189.931C165.353 188.916 164.709 187.993 163.604 187.707C162.934 187.525 161.763 187.486 160.606 188.799C160.041 189.241 159.646 189.853 159.502 190.516C159.252 191.023 159.028 191.622 158.989 192.298C158.91 193.768 159.804 195.081 161.119 195.394C161.33 195.446 161.553 195.472 161.763 195.472Z" fill="black"/>
<path d="M142.092 199.946C142.329 199.946 142.552 199.907 142.776 199.842C143.368 199.66 144.13 199.165 144.512 197.904C144.946 197.123 145.051 196.291 145.09 195.693C145.09 195.654 145.09 195.615 145.103 195.576L145.458 194.847C145.669 194.418 145.958 193.82 145.984 193.104C146.024 192.012 145.419 191.023 144.485 190.633C143.407 190.191 142.21 190.581 141.264 191.674C141.132 191.83 141.001 191.999 140.869 192.168C140.711 192.272 140.554 192.389 140.409 192.532C139.804 193.117 139.528 193.833 139.331 194.366C139.094 194.977 138.818 195.732 138.831 196.603C138.857 197.839 139.528 198.931 140.541 199.4C140.988 199.751 141.54 199.946 142.092 199.946Z" fill="black"/>
<path d="M195.952 221.342C196.136 221.342 196.333 221.316 196.543 221.251C197.082 221.316 197.622 221.081 197.95 220.652C198.108 220.431 198.266 220.21 198.411 219.976C198.647 219.807 198.831 219.56 198.936 219.274L199.055 218.935C199.436 218.428 199.712 217.843 199.844 217.232C199.91 216.958 199.949 216.672 199.962 216.386C200.094 215.996 200.054 215.567 199.87 215.216C199.87 215.137 199.87 215.059 199.87 214.994C199.883 214.864 199.883 214.721 199.883 214.591C199.923 212.796 199.015 212.068 198.476 211.795C197.635 211.366 196.556 211.47 195.728 212.081C195.689 212.107 195.649 212.133 195.623 212.159C195.386 212.211 195.163 212.302 194.939 212.432C194.479 212.705 194.098 213.121 193.848 213.629C193.217 214.162 192.73 214.929 192.506 215.788C192.191 216.984 192.467 218.142 193.23 218.857C193.427 219.313 193.716 219.703 194.084 220.015C194.15 220.21 194.255 220.405 194.387 220.587C194.716 221.016 195.176 221.29 195.715 221.342C195.794 221.342 195.873 221.342 195.952 221.342Z" fill="black"/>
<path d="M165.8 225.205C166.865 225.205 167.917 224.58 168.522 223.579C168.667 223.345 168.772 223.11 168.851 222.876C169.167 222.59 169.443 222.239 169.64 221.823C170.048 220.964 170.048 220.067 170.034 219.417C170.034 218.688 170.021 216.763 168.443 215.866C167.102 215.098 165.59 215.606 164.525 216.607C163.841 217.023 163.276 217.726 162.96 218.636C162.763 219.183 162.671 219.794 162.697 220.405C162.644 220.769 162.631 221.146 162.631 221.524C162.684 223.228 163.696 225.048 165.55 225.205C165.643 225.192 165.721 225.205 165.8 225.205Z" fill="black"/>
<path d="M182.737 238.822C183.394 238.822 184.051 238.588 184.604 238.146C185.84 237.639 186.76 236.494 186.905 235.194C186.984 234.517 186.852 233.854 186.55 233.282C186.326 232.267 185.682 231.344 184.577 231.057C183.907 230.875 182.737 230.836 181.579 232.15C181.014 232.592 180.62 233.204 180.475 233.867C180.225 234.374 180.002 234.972 179.962 235.649C179.883 237.119 180.777 238.432 182.092 238.757C182.303 238.796 182.513 238.822 182.737 238.822Z" fill="black"/>
<path d="M206.813 206.033C207.47 206.033 208.128 205.799 208.68 205.357C209.916 204.849 210.837 203.705 210.981 202.404C211.06 201.728 210.929 201.064 210.626 200.492C210.403 199.478 209.758 198.554 208.654 198.268C207.983 198.086 206.813 198.047 205.656 199.361C205.09 199.803 204.696 200.414 204.551 201.077C204.301 201.585 204.078 202.183 204.038 202.859C203.96 204.329 204.854 205.643 206.169 205.968C206.392 206.007 206.603 206.033 206.813 206.033Z" fill="black"/>
<path d="M230.981 227.611C231.639 227.611 232.296 227.377 232.848 226.934C234.085 226.427 235.005 225.283 235.15 223.982C235.229 223.306 235.097 222.642 234.795 222.07C234.571 221.055 233.927 220.132 232.822 219.846C232.152 219.664 230.981 219.625 229.824 220.938C229.259 221.381 228.864 221.992 228.72 222.655C228.47 223.163 228.246 223.761 228.207 224.437C228.128 225.907 229.022 227.221 230.337 227.546C230.561 227.585 230.771 227.611 230.981 227.611Z" fill="black"/>
<path d="M155.938 240.227C156.596 240.227 157.253 239.993 157.806 239.551C159.042 239.044 159.962 237.899 160.107 236.598C160.186 235.922 160.054 235.259 159.752 234.686C159.528 233.672 158.884 232.748 157.779 232.462C157.109 232.28 155.938 232.241 154.781 233.555C154.216 233.997 153.821 234.608 153.677 235.272C153.427 235.779 153.203 236.377 153.164 237.054C153.072 238.523 153.979 239.837 155.294 240.149C155.504 240.214 155.728 240.227 155.938 240.227Z" fill="black"/>
<path d="M163.762 258.592C164.735 259.022 165.958 258.878 166.918 258.189C167.142 258.033 167.339 257.864 167.51 257.682C167.917 257.552 168.312 257.344 168.667 257.032C169.39 256.407 169.758 255.588 170.021 254.989C170.311 254.326 171.086 252.557 170.021 251.101C169.114 249.865 167.51 249.722 166.142 250.203C165.34 250.307 164.538 250.736 163.881 251.426C163.486 251.842 163.144 252.362 162.921 252.934C162.723 253.247 162.552 253.585 162.408 253.936C161.75 255.523 161.934 257.578 163.565 258.475C163.618 258.527 163.683 258.566 163.762 258.592Z" fill="black"/>
<path d="M176.911 210.598C177.516 210.858 178.213 210.91 178.897 210.728C180.238 210.754 181.54 210.078 182.211 208.946C182.552 208.361 182.71 207.698 182.671 207.06C182.881 206.046 182.671 204.953 181.79 204.238C181.251 203.809 180.199 203.302 178.608 204.03C177.911 204.212 177.306 204.615 176.898 205.161C176.464 205.526 176.004 205.981 175.702 206.579C175.018 207.893 175.307 209.441 176.385 210.273C176.53 210.403 176.714 210.507 176.911 210.598Z" fill="black"/>
<path d="M135.044 224.294C135.702 224.294 136.359 224.06 136.911 223.618C138.147 223.111 139.068 221.966 139.212 220.665C139.291 219.989 139.16 219.326 138.857 218.753C138.634 217.739 137.99 216.815 136.885 216.529C136.214 216.347 135.044 216.308 133.887 217.622C133.322 218.064 132.927 218.675 132.782 219.339C132.533 219.846 132.309 220.444 132.27 221.121C132.191 222.59 133.085 223.904 134.4 224.216C134.623 224.268 134.834 224.294 135.044 224.294Z" fill="black"/>
<path d="M147.996 214.019C148.601 214.279 149.298 214.331 149.982 214.149C151.323 214.175 152.625 213.499 153.295 212.367C153.637 211.782 153.795 211.118 153.756 210.481C153.966 209.467 153.756 208.374 152.875 207.659C152.335 207.23 151.283 206.722 149.692 207.451C148.995 207.633 148.391 208.036 147.983 208.582C147.549 208.946 147.089 209.402 146.786 210C146.103 211.314 146.392 212.861 147.47 213.694C147.615 213.824 147.799 213.928 147.996 214.019Z" fill="black"/>
<path d="M240.528 217.284C240.738 217.375 240.962 217.44 241.198 217.466C241.816 217.531 242.71 217.388 243.578 216.386C244.288 215.853 244.735 215.138 245.012 214.604C245.025 214.565 245.051 214.539 245.064 214.5L245.682 213.98C246.05 213.668 246.55 213.239 246.879 212.588C247.365 211.6 247.221 210.455 246.511 209.727C245.708 208.894 244.446 208.764 243.144 209.389C242.96 209.48 242.763 209.584 242.592 209.688C242.408 209.714 242.211 209.766 242.027 209.831C241.225 210.117 240.685 210.676 240.291 211.066C239.831 211.535 239.252 212.107 238.91 212.913C238.424 214.045 238.595 215.32 239.331 216.152C239.594 216.659 240.015 217.062 240.528 217.284Z" fill="black"/>
<path d="M226.077 211.405C226.734 211.405 227.392 211.171 227.944 210.728C229.18 210.221 230.1 209.076 230.245 207.776C230.324 207.099 230.192 206.436 229.89 205.864C229.666 204.849 229.022 203.926 227.918 203.64C227.247 203.458 226.077 203.419 224.919 204.732C224.354 205.174 223.96 205.786 223.815 206.449C223.565 206.956 223.342 207.555 223.302 208.231C223.21 209.701 224.117 211.014 225.432 211.34C225.656 211.392 225.866 211.405 226.077 211.405Z" fill="black"/>
<path d="M188.18 256.238C188.417 256.238 188.641 256.199 188.877 256.134C189.469 255.952 190.232 255.458 190.613 254.196C191.047 253.416 191.152 252.583 191.192 251.985C191.192 251.946 191.192 251.907 191.205 251.868L191.56 251.14C191.77 250.71 192.059 250.112 192.086 249.397C192.125 248.304 191.52 247.316 190.587 246.925C189.508 246.483 188.312 246.873 187.365 247.966C187.234 248.122 187.102 248.291 186.971 248.46C186.813 248.564 186.655 248.681 186.51 248.824C185.906 249.41 185.629 250.125 185.432 250.658C185.195 251.27 184.919 252.024 184.932 252.895C184.959 254.131 185.629 255.224 186.642 255.692C187.076 256.043 187.628 256.238 188.18 256.238Z" fill="black"/>
<path d="M211.205 229.041C212.178 229.471 213.401 229.328 214.361 228.638C214.584 228.482 214.781 228.313 214.952 228.131C215.36 228.001 215.754 227.793 216.109 227.494C216.833 226.869 217.201 226.05 217.464 225.452C217.753 224.788 218.529 223.019 217.464 221.576C216.557 220.34 214.952 220.197 213.585 220.678C212.783 220.782 211.981 221.212 211.323 221.901C210.929 222.317 210.587 222.837 210.363 223.41C210.166 223.722 209.995 224.06 209.85 224.411C209.193 225.998 209.377 228.053 211.008 228.95C211.06 228.976 211.126 229.015 211.205 229.041Z" fill="black"/>
<path d="M213.453 261.753C214.426 262.182 215.649 262.039 216.609 261.35C216.833 261.194 217.03 261.025 217.201 260.842C217.608 260.712 218.003 260.504 218.358 260.205C219.081 259.581 219.449 258.761 219.712 258.163C220.002 257.5 220.777 255.731 219.712 254.287C218.805 253.052 217.201 252.908 215.833 253.39C215.031 253.494 214.229 253.923 213.572 254.612C213.177 255.029 212.835 255.549 212.612 256.121C212.415 256.433 212.244 256.771 212.099 257.123C211.441 258.709 211.626 260.764 213.256 261.662C213.309 261.688 213.374 261.727 213.453 261.753Z" fill="black"/>
<path d="M203.867 245.755C204.472 246.015 205.169 246.067 205.853 245.885C207.194 245.911 208.496 245.235 209.167 244.103C209.509 243.518 209.666 242.854 209.627 242.217C209.837 241.203 209.627 240.11 208.746 239.395C208.207 238.965 207.155 238.458 205.564 239.187C204.867 239.369 204.262 239.772 203.854 240.318C203.42 240.682 202.96 241.138 202.658 241.736C201.974 243.05 202.263 244.597 203.342 245.43C203.486 245.56 203.67 245.677 203.867 245.755Z" fill="black"/>
<path d="M218.134 194.34C218.739 194.6 219.436 194.652 220.12 194.47C221.461 194.496 222.763 193.82 223.434 192.688C223.775 192.103 223.933 191.44 223.894 190.802C224.104 189.788 223.894 188.695 223.013 187.98C222.474 187.551 221.422 187.043 219.831 187.772C219.134 187.954 218.529 188.357 218.121 188.903C217.687 189.268 217.227 189.723 216.925 190.321C216.241 191.635 216.53 193.182 217.608 194.015C217.753 194.145 217.937 194.262 218.134 194.34Z" fill="black"/>
<path d="M150.113 235.441L125.064 227.624C124.617 229.237 124.249 230.823 123.907 232.384C132.651 235.168 141.382 238.094 150.126 240.643V235.441H150.113Z" fill="#1A1A1A" stroke="#1A1A1A" stroke-width="1.21065" stroke-miterlimit="10" stroke-linecap="round" stroke-linejoin="round"/>
<path d="M244.762 227.793L220.251 235.441V240.747C228.667 238.367 237.201 235.883 245.603 233.034C245.38 231.318 245.117 229.575 244.762 227.793Z" fill="#1A1A1A" stroke="#1A1A1A" stroke-width="1.21065" stroke-miterlimit="10" stroke-linecap="round" stroke-linejoin="round"/>
<path d="M168.417 183.128C168.417 183.128 168.693 199.816 186.497 199.998C204.301 200.18 205.985 184.455 205.985 184.455C205.985 184.455 185.774 179.929 168.417 183.128Z" fill="#020203"/>
<path d="M174.492 179.487L175.281 188.734C175.281 188.734 176.74 195.263 186.813 195.263C198.095 195.263 199.752 188.734 199.752 188.734L199.896 177.249L199.936 174.609C192.454 177.848 180.383 179.07 174.492 179.487Z" fill="white" stroke="black" stroke-width="1.3996" stroke-miterlimit="10"/>
<path d="M200.041 165.765L173.558 168.522L174.242 176.547L174.492 179.487C180.383 179.07 192.454 177.861 199.936 174.596L200.041 165.765Z" fill="#1A1A1A" stroke="#1A1A1A" stroke-width="1.3996" stroke-miterlimit="10"/>
<path d="M222.329 95.9976C226.537 105.219 228.601 112.243 228.601 135.967C228.601 154.475 213.664 172.593 190.81 174.063C169.337 175.442 147.023 166.896 140.33 137.098C133.637 107.3 143.118 83.5764 170.455 76.956C197.793 70.3357 217.385 85.1371 222.329 95.9976Z" fill="white" stroke="black" stroke-width="1.3996" stroke-miterlimit="10"/>
<path d="M217.99 73.2492C248.273 84.2917 239.489 134.289 236.767 136.279C233.282 138.828 231.389 140.883 228.062 138.139C224.735 135.394 227.352 135.446 224.67 132.091C216.754 122.193 211.836 98.9891 208.404 92.2387C206.655 88.805 205.064 85.0461 205.564 81.2352C206.063 77.4243 209.416 73.7304 213.269 74.1726" fill="#1A1A1A"/>
<path d="M236.07 137.931C242.237 127.916 244.209 115.455 241.435 104.049C238.66 92.6419 231.165 82.4318 221.067 76.2927" stroke="#010202" stroke-width="0.817505" stroke-miterlimit="10"/>
<path d="M141.592 132.806C141.592 132.806 156.109 116.782 158.371 102.709C158.371 102.709 196.898 119.683 219.726 98.9371C224.42 94.671 228.93 81.4823 222.29 79.6094C222.29 79.6094 225.919 60.4768 205.209 63.2862C184.499 66.0956 181.08 62.7269 169.048 63.3512C157.03 63.9755 146.576 77.4113 146.576 77.4113C118.568 94.9311 128.759 128.735 132.086 132.806C140.751 143.445 141.592 132.806 141.592 132.806Z" fill="#1A1A1A"/>
<path d="M148.548 78.7249C139.646 82.4318 132.375 89.7935 128.811 98.6769C125.261 107.56 125.485 117.849 129.403 126.576C130.994 130.114 133.374 133.573 136.951 135.16" stroke="#010202" stroke-width="0.817505" stroke-miterlimit="10"/>
<path d="M146.09 80.0646C143.499 78.7899 139.015 75.1351 141.264 73.3532C142.631 72.2607 144.38 75.0831 145.34 76.5398C144.998 74.94 144.656 73.3402 144.314 71.7534C144.222 71.3502 144.143 70.921 144.222 70.5048C144.301 70.0886 144.591 69.6984 145.011 69.6203C145.629 69.5163 146.116 70.1146 146.431 70.6609C147.891 73.2231 148.838 76.0716 149.206 78.985" fill="#1A1A1A"/>
<path d="M224.104 131.922C224.104 131.922 240.212 126.134 241.04 142.47C241.724 155.737 229.982 158.546 222.789 153.695" fill="white"/>
<path d="M224.104 131.922C224.104 131.922 240.212 126.134 241.04 142.47C241.724 155.737 229.982 158.546 222.789 153.695" stroke="black" stroke-width="1.3996" stroke-miterlimit="10"/>
<path d="M224.722 150.248C224.762 150.248 224.814 150.235 224.854 150.222C225.025 150.144 225.09 149.949 225.012 149.793C224.972 149.715 221.448 141.859 226.984 138.204C228.93 136.916 230.85 136.474 232.691 136.864C235.873 137.553 237.793 140.558 237.806 140.584C237.898 140.74 238.108 140.779 238.266 140.688C238.424 140.597 238.463 140.389 238.371 140.233C238.292 140.103 236.294 136.968 232.835 136.214C230.81 135.785 228.72 136.253 226.616 137.645C220.607 141.611 224.367 149.975 224.407 150.053C224.486 150.183 224.604 150.248 224.722 150.248Z" fill="#020203"/>
<path d="M232.888 143.849C232.993 143.849 233.085 143.81 233.151 143.719C233.256 143.575 233.23 143.367 233.085 143.263C233.033 143.224 227.47 139.205 223.355 143.289C223.223 143.419 223.223 143.628 223.355 143.758C223.486 143.888 223.697 143.888 223.828 143.758C227.549 140.077 232.651 143.758 232.704 143.784C232.743 143.823 232.809 143.849 232.888 143.849Z" fill="#020203"/>
<path d="M187.983 152.121C182.921 152.121 182.342 147.959 182.329 147.92C182.303 147.738 182.434 147.582 182.618 147.555C182.789 147.529 182.96 147.66 182.986 147.842C183.013 148.011 183.591 151.939 188.904 151.431C189.088 151.431 189.245 151.549 189.272 151.731C189.285 151.913 189.153 152.069 188.969 152.095C188.614 152.108 188.286 152.121 187.983 152.121Z" fill="#020203"/>
<path d="M145.077 131.922C145.077 131.922 128.969 126.134 128.141 142.47C127.444 156.166 140.606 159.326 147.746 153.799" fill="white"/>
<path d="M145.077 131.922C145.077 131.922 128.969 126.134 128.141 142.47C127.444 156.166 140.606 159.326 147.746 153.799" stroke="black" stroke-width="1.3996" stroke-miterlimit="10"/>
<path d="M157.674 125.08C157.674 125.08 154.374 122.18 161.343 118.564C168.312 114.948 170.758 115.742 171.888 117.549C172.914 119.201 171.323 121.672 167.365 123.636C162.618 125.978 159.462 126.745 157.674 125.08Z" fill="#1A1A1A"/>
<path d="M171.021 136.123C171.021 138.347 169.522 140.155 167.668 140.155C165.813 140.155 164.314 138.347 164.314 136.123C164.314 133.899 165.813 132.091 167.668 132.091C169.522 132.091 171.021 133.899 171.021 136.123Z" fill="#020203"/>
<path d="M214.558 125.08C214.558 125.08 217.858 122.18 210.889 118.564C203.92 114.948 201.474 115.742 200.343 117.549C199.318 119.201 200.909 121.672 204.867 123.636C209.614 125.978 212.77 126.745 214.558 125.08Z" fill="#1A1A1A"/>
<path d="M199.739 136.123C199.739 138.347 201.238 140.155 203.092 140.155C204.946 140.155 206.445 138.347 206.445 136.123C206.445 133.899 204.946 132.091 203.092 132.091C201.238 132.091 199.739 133.899 199.739 136.123Z" fill="#020203"/>
<path d="M144.459 150.248C144.42 150.248 144.367 150.235 144.328 150.222C144.157 150.144 144.091 149.949 144.17 149.793C144.209 149.715 147.733 141.859 142.197 138.204C140.251 136.916 138.331 136.474 136.491 136.864C133.308 137.553 131.389 140.558 131.375 140.584C131.283 140.74 131.073 140.779 130.915 140.688C130.757 140.597 130.718 140.389 130.81 140.233C130.889 140.103 132.888 136.968 136.346 136.214C138.371 135.785 140.462 136.253 142.566 137.645C148.575 141.611 144.814 149.975 144.775 150.053C144.696 150.183 144.577 150.248 144.459 150.248Z" fill="#020203"/>
<path d="M136.293 143.849C136.188 143.849 136.096 143.81 136.03 143.719C135.925 143.575 135.951 143.367 136.096 143.263C136.149 143.224 141.711 139.205 145.827 143.289C145.958 143.419 145.958 143.628 145.827 143.758C145.695 143.888 145.485 143.888 145.353 143.758C141.632 140.077 136.53 143.758 136.477 143.784C136.438 143.823 136.359 143.849 136.293 143.849Z" fill="#020203"/>
<path d="M189.101 144.213C188.969 144.213 188.851 144.148 188.798 144.018C188.72 143.849 188.798 143.654 188.956 143.589C188.983 143.576 191.639 142.366 192.809 140.012C193.729 138.165 193.44 135.407 192.204 134.211C191.455 133.495 190.455 133.43 189.285 134.042C189.245 134.055 189.193 134.094 189.114 134.133C185.038 136.474 183.197 135.42 182.368 134.133C180.856 131.753 182.158 112.984 182.316 110.851C182.329 110.669 182.487 110.539 182.671 110.552C182.855 110.565 182.986 110.721 182.973 110.903C182.553 116.639 181.737 131.935 182.921 133.782C183.894 135.316 185.866 135.238 188.772 133.573C188.864 133.521 188.93 133.482 188.969 133.456C190.389 132.728 191.704 132.819 192.651 133.743C194.098 135.134 194.439 138.204 193.388 140.311C192.112 142.873 189.338 144.135 189.219 144.187C189.193 144.2 189.153 144.213 189.101 144.213Z" fill="#020203"/>
<path d="M193.059 135.863C192.677 126.16 200.357 117.966 210.166 117.588C219.975 117.211 228.259 124.807 228.641 134.51C229.022 144.213 221.343 152.407 211.534 152.784C201.724 153.148 193.44 145.566 193.059 135.863ZM194.006 135.824C194.361 145.006 202.211 152.199 211.507 151.848C220.791 151.483 228.049 143.719 227.694 134.536C227.339 125.353 219.489 118.161 210.192 118.512C200.909 118.863 193.637 126.628 194.006 135.824Z" fill="#1A1A1A"/>
<path d="M144.42 137.723C144.038 128.02 151.717 119.826 161.527 119.448C171.336 119.071 179.62 126.667 180.002 136.37C180.383 146.073 172.704 154.267 162.894 154.644C153.085 155.008 144.801 147.425 144.42 137.723ZM145.366 137.684C145.721 146.866 153.571 154.059 162.868 153.695C172.151 153.343 179.423 145.579 179.068 136.383C178.713 127.2 170.863 120.008 161.566 120.359C152.27 120.736 145.011 128.488 145.366 137.684Z" fill="#1A1A1A"/>
<path d="M179.449 134.393C179.528 134.393 179.607 134.367 179.686 134.315C186.3 130.127 193.322 133.756 193.387 133.795C193.624 133.912 193.9 133.834 194.032 133.599C194.15 133.365 194.071 133.092 193.835 132.962C193.756 132.923 186.261 129.047 179.173 133.521C178.95 133.665 178.884 133.951 179.028 134.172C179.121 134.315 179.291 134.393 179.449 134.393Z" fill="#1A1A1A"/>
</g>
<defs>
<filter id="filter0_d_269_2" x="0.509216" y="0.57" width="376.096" height="334.598" filterUnits="userSpaceOnUse" color-interpolation-filters="sRGB">
<feFlood flood-opacity="0" result="BackgroundImageFix"/>
<feColorMatrix in="SourceAlpha" type="matrix" values="0 0 0 0 0 0 0 0 0 0 0 0 0 0 0 0 0 0 127 0" result="hardAlpha"/>
<feOffset dy="0.57"/>
<feGaussianBlur stdDeviation="11.5"/>
<feComposite in2="hardAlpha" operator="out"/>
<feColorMatrix type="matrix" values="0 0 0 0 0.686275 0 0 0 0 0.756863 0 0 0 0 0.807843 0 0 0 0.48 0"/>
<feBlend mode="normal" in2="BackgroundImageFix" result="effect1_dropShadow_269_2"/>
<feBlend mode="normal" in="SourceGraphic" in2="effect1_dropShadow_269_2" result="shape"/>
</filter>
<clipPath id="clip0_269_2">
<rect width="126" height="210.056" fill="white" transform="translate(120 57.2222)"/>
</clipPath>
</defs>
</svg>
